<svg width="76" height="74" viewBox="0 0 76 74" fill="none" xmlns="http://www.w3.org/2000/svg">
<g id="devicon:googlecloud">
<path id="Vector" d="M47.7316 23.2984H47.9659L47.8488 23.1828L56.0519 15.089V14.9156C49.1378 8.9031 39.587 6.82185 30.7394 9.42341C21.8917 12.025 15.0948 18.9625 12.6339 27.75C12.7511 27.6922 12.9269 27.6343 13.1027 27.6343C16.1495 25.6687 19.7823 24.5125 23.5909 24.5125C24.88 24.5125 26.1105 24.6281 27.3409 24.8593C27.3995 24.8015 27.4581 24.8015 27.5167 24.8015C32.7902 19.0781 41.6964 18.3843 47.7902 23.2984H47.7316Z" fill="#EA4535"/>
<path id="Vector_2" d="M63.8448 27.6343C62.4972 22.7203 59.6847 18.2687 55.7589 14.8578L47.38 23.0672C50.8956 25.9 52.9464 30.1781 52.8292 34.6297V36.075C62.7316 36.075 62.7316 50.6437 52.8292 50.6437H37.9464V62.2062H37.8878L37.9464 62.3219H52.8292C61.3839 62.3797 68.9425 56.9453 71.462 48.9672C73.9816 40.989 70.8761 32.3172 63.8448 27.6343Z" fill="#557EBF"/>
<path id="Vector_3" d="M23.3566 62.3797H38.7667V50.7015H23.3566C22.2433 50.7015 21.1886 50.4703 20.1925 50.0656L11.2863 58.5062V58.6219C14.8019 61.1078 19.0206 62.4375 23.4152 62.4375L23.3566 62.3797Z" fill="#36A852"/>
<path id="Vector_4" d="M24.0597 24.2234C15.3292 24.2813 7.59485 29.6 4.78235 37.4047C1.96985 45.2672 4.78235 53.8813 11.6964 58.9688L20.837 50.3547C15.798 48.2156 14.6261 41.9719 18.4933 38.3297C22.3605 34.6297 28.923 35.7859 31.2081 40.5266L40.3488 31.9125C36.4816 27.1141 30.4464 24.2813 24.0597 24.3391V24.2234Z" fill="#F9BC15"/>
</g>
</svg>
