<svg width="101" height="100" viewBox="0 0 101 100" fill="none" xmlns="http://www.w3.org/2000/svg">
<g id="devicon:python">
<path id="Vector" d="M50.0292 9.56874C46.7308 9.58436 43.5824 9.86483 40.8105 10.3555C32.6464 11.7976 31.1652 14.8164 31.1652 20.3844V27.7367H50.4566V30.1875H23.9245C18.3183 30.1875 13.4089 33.557 11.873 39.9695C10.1011 47.3172 10.023 51.9031 11.873 59.5758C13.2441 65.2875 16.5191 69.3562 22.1261 69.3562H28.7597V60.5422C28.7597 54.1742 34.2683 48.5578 40.8113 48.5578H60.0808C65.4449 48.5578 69.7261 44.1406 69.7261 38.7547V20.3851C69.7261 15.1562 65.3152 11.2289 60.0808 10.3562C56.7652 9.80467 53.3269 9.55389 50.0292 9.56874ZM39.5964 15.482C41.5886 15.482 43.2167 17.1359 43.2167 19.1703C43.2167 21.1961 41.5894 22.8344 39.5964 22.8344C37.5964 22.8344 35.9769 21.1961 35.9769 19.1703C35.9761 17.1359 37.5964 15.482 39.5964 15.482Z" fill="url(#paint0_linear_5_38)"/>
<path id="Vector_2" d="M72.1316 30.1875V38.7547C72.1316 45.3953 66.5003 50.9851 60.08 50.9851H40.8105C35.5323 50.9851 31.1652 55.5031 31.1652 60.7891V79.1601C31.1652 84.3875 35.7105 87.4633 40.8105 88.9625C46.9167 90.757 52.773 91.082 60.08 88.9625C64.9363 87.5555 69.7253 84.7258 69.7253 79.1601V71.807H50.4566V69.3555H79.3722C84.9784 69.3555 87.0691 65.4453 89.0191 59.575C91.0331 53.532 90.9464 47.7203 89.0191 39.9687C87.6331 34.3867 84.987 30.1867 79.3722 30.1867L72.1316 30.1875ZM61.2933 76.7086C63.2941 76.7086 64.9136 78.3469 64.9136 80.3742C64.9136 82.407 63.2933 84.0609 61.2933 84.0609C59.3011 84.0609 57.6738 82.407 57.6738 80.3742C57.6738 78.3469 59.3011 76.7086 61.2933 76.7086Z" fill="url(#paint1_linear_5_38)"/>
<path id="Vector_3" opacity="0.444" d="M76.5277 93.4352C76.5277 96.2031 64.9527 98.4477 50.6753 98.4477C36.3972 98.4477 24.8222 96.2031 24.8222 93.4352C24.8222 90.6672 36.3964 88.4219 50.6753 88.4219C64.9527 88.4219 76.5277 90.6656 76.5277 93.4352Z" fill="url(#paint2_radial_5_38)"/>
</g>
<defs>
<linearGradient id="paint0_linear_5_38" x1="8.5807" y1="11.8677" x2="53.0758" y2="49.8129" gradientUnits="userSpaceOnUse">
<stop stop-color="#5A9FD4"/>
<stop offset="1" stop-color="#306998"/>
</linearGradient>
<linearGradient id="paint1_linear_5_38" x1="69.8166" y1="73.4003" x2="53.8599" y2="51.0236" gradientUnits="userSpaceOnUse">
<stop stop-color="#FFD43B"/>
<stop offset="1" stop-color="#FFE873"/>
</linearGradient>
<radialGradient id="paint2_radial_5_38" cx="0" cy="0" r="1" gradientUnits="userSpaceOnUse" gradientTransform="translate(50.5708 93.2916) rotate(-90) scale(5.01431 22.0421)">
<stop stop-color="#B8B8B8" stop-opacity="0.498"/>
<stop offset="1" stop-color="#7F7F7F" stop-opacity="0"/>
</radialGradient>
</defs>
</svg>
