<?xml version="1.0" encoding="utf-8"?>
<!-- Generator: Adobe Illustrator 19.2.1, SVG Export Plug-In . SVG Version: 6.00 Build 0)  -->
<svg version="1.1" id="Layer_1" xmlns="http://www.w3.org/2000/svg" xmlns:xlink="http://www.w3.org/1999/xlink" x="0px" y="0px"
	 viewBox="0 0 800 225" style="enable-background:new 0 0 800 225;" xml:space="preserve">
<style type="text/css">
	.st0{fill:#99ccee;}
</style>
<path class="st0" d="M694.548,7.539c-51.052,0-93.628,36.279-103.36,84.462V7.539L485.434,112.989L379.98,7.539v84.462
	c-9.732-48.184-52.309-84.462-103.361-84.462c-51.046,0-93.619,36.271-103.356,84.446c-3.773-18.653-12.465-35.523-24.669-49.193
	C129.281,21.161,101.188,7.539,69.91,7.539H0v210.905h69.91c31.277,0,59.37-13.622,78.682-35.252
	c12.205-13.669,20.897-30.54,24.671-49.194c9.738,48.175,52.31,84.446,103.356,84.446c51.052,0,93.629-36.279,103.361-84.463v84.463
	h34.948V92.326l70.506,70.503l70.199-70.503v126.117h35.555V133.98c9.732,48.184,52.309,84.463,103.36,84.463
	C752.787,218.443,800,171.23,800,112.991C800,54.751,752.787,7.539,694.548,7.539z M74.49,183.191H34.948v-140.4h39.568
	c36.712,2.375,65.76,32.886,65.76,70.199C140.276,150.312,111.215,180.83,74.49,183.191z M276.619,183.356
	c-38.862,0-70.366-31.504-70.366-70.366c0-38.862,31.504-70.366,70.366-70.366c38.862,0,70.366,31.504,70.366,70.366
	C346.985,151.852,315.481,183.356,276.619,183.356z M694.548,183.356c-38.862,0-70.365-31.504-70.365-70.366
	c0-38.862,31.503-70.366,70.365-70.366c38.861,0,70.366,31.504,70.366,70.366C764.914,151.852,733.409,183.356,694.548,183.356z"/>
</svg>
