<svg width="87" height="50" viewBox="0 0 87 50" fill="none" xmlns="http://www.w3.org/2000/svg">
<g id="logos:aws" clip-path="url(#clip0_5_35)">
<path id="Vector" d="M24.8253 18.117C24.8253 19.1422 24.9395 19.9732 25.1387 20.5827C25.3916 21.2684 25.6961 21.935 26.0497 22.5771C26.1921 22.7987 26.2489 23.0203 26.2489 23.2144C26.2489 23.4912 26.0783 23.7683 25.7081 24.0454L23.9143 25.2088C23.658 25.3752 23.4017 25.4582 23.1736 25.4582C22.8891 25.4582 22.6042 25.3196 22.3193 25.0703C21.9357 24.6691 21.5925 24.2332 21.2945 23.7683C21.0096 23.2977 20.7247 22.7709 20.4117 22.134C18.1906 24.6823 15.3998 25.9569 12.0399 25.9569C9.64818 25.9569 7.74017 25.2918 6.34476 23.9624C4.9497 22.6323 4.23788 20.8595 4.23788 18.6435C4.23788 16.2889 5.09212 14.3774 6.82916 12.9369C8.56585 11.4964 10.8726 10.7761 13.8055 10.7761C14.7736 10.7761 15.7703 10.8591 16.8237 10.9977C17.8775 11.1363 18.9595 11.3578 20.0986 11.6072V9.58496C20.0986 7.47941 19.6427 6.01143 18.76 5.15261C17.8489 4.29378 16.3111 3.8781 14.1186 3.8781C13.1219 3.8781 12.097 3.98921 11.0432 4.23856C9.98981 4.48758 8.96459 4.79248 7.96792 5.18039C7.51241 5.37418 7.17078 5.48496 6.97125 5.54052C6.77205 5.59607 6.62962 5.62352 6.51574 5.62352C6.11701 5.62352 5.91781 5.3464 5.91781 4.7647V3.40718C5.91781 2.96405 5.97492 2.63169 6.11701 2.4379C6.25944 2.24378 6.51574 2.04999 6.91448 1.8562C7.91115 1.35751 9.10702 0.941823 10.5021 0.60947C11.8978 0.24934 13.3785 0.0833265 14.9446 0.0833265C18.3333 0.0833265 20.8107 0.831039 22.4053 2.32712C23.9714 3.82287 24.7689 6.09444 24.7689 9.14182V18.117H24.8253ZM13.2643 22.3278C14.2042 22.3278 15.1723 22.1618 16.1972 21.8291C17.2225 21.4967 18.1338 20.8872 18.9024 20.0562C19.3582 19.5301 19.6999 18.9484 19.8705 18.2833C20.0415 17.6186 20.1554 16.815 20.1554 15.8732V14.7098C19.2918 14.5053 18.4172 14.3481 17.5355 14.2389C16.6478 14.1292 15.7538 14.0736 14.8589 14.0725C12.9509 14.0725 11.5559 14.4327 10.6163 15.1807C9.6764 15.9288 9.22089 16.9814 9.22089 18.3663C9.22089 19.6683 9.56252 20.6379 10.2743 21.3029C10.9579 21.9954 11.9546 22.3278 13.2643 22.3278ZM36.1299 25.3196C35.6173 25.3196 35.2757 25.2366 35.0479 25.0425C34.8202 24.8765 34.6207 24.4886 34.45 23.9624L27.7585 2.54869C27.5872 1.99444 27.5019 1.63431 27.5019 1.44052C27.5019 0.997379 27.7296 0.747706 28.1855 0.747706H30.9759C31.5168 0.747706 31.8873 0.831039 32.0865 1.02483C32.3142 1.19117 32.4852 1.57908 32.6559 2.10522L37.4397 20.4441L41.8819 2.10522C42.0243 1.5513 42.1953 1.19117 42.4227 1.02483C42.6508 0.858817 43.0495 0.748032 43.5621 0.748032H45.84C46.3808 0.748032 46.7513 0.831039 46.9787 1.02483C47.2068 1.19117 47.406 1.57908 47.5199 2.10522L52.0192 20.6657L56.9451 2.10522C57.1157 1.5513 57.3153 1.19117 57.5145 1.02483C57.7422 0.858817 58.1124 0.748032 58.625 0.748032H61.2731C61.7289 0.748032 61.9852 0.969601 61.9852 1.44052C61.9852 1.57908 61.9566 1.71764 61.9281 1.88365C61.8995 2.04999 61.8428 2.27156 61.7289 2.57646L54.8661 23.9899C54.6954 24.5441 54.4963 24.9042 54.2682 25.0703C54.0404 25.2366 53.6702 25.3474 53.1865 25.3474H50.7377C50.1965 25.3474 49.8263 25.2644 49.5982 25.0703C49.3705 24.8765 49.1713 24.5163 49.0574 23.9624L44.6434 6.09444L40.2584 23.9343C40.1163 24.4886 39.9453 24.8487 39.7175 25.0425C39.4898 25.2366 39.091 25.3196 38.5788 25.3196H36.1299ZM72.7205 26.0676C71.2397 26.0676 69.759 25.9013 68.3354 25.5689C66.9114 25.2366 65.8012 24.8761 65.0609 24.4611C64.605 24.2114 64.2916 23.9346 64.1781 23.6853C64.0672 23.4408 64.009 23.1767 64.0071 22.9095V21.4967C64.0071 20.915 64.2348 20.6379 64.6621 20.6379C64.8365 20.6385 65.0096 20.6667 65.1747 20.7212C65.3454 20.7768 65.6017 20.8872 65.8866 20.998C66.8923 21.4284 67.9422 21.7534 69.0187 21.9676C70.134 22.1879 71.2693 22.2992 72.4074 22.3C74.2012 22.3 75.5966 21.9954 76.5647 21.3859C77.5328 20.7765 78.0454 19.8902 78.0454 18.7542C78.0454 17.9788 77.7891 17.3415 77.2765 16.815C76.7639 16.2889 75.7958 15.818 74.4007 15.3745L70.2716 14.1281C68.193 13.4908 66.6555 12.549 65.7156 11.3023C64.776 10.0833 64.292 8.72614 64.292 7.28561C64.292 6.12222 64.5483 5.09705 65.0609 4.21045C65.5731 3.32418 66.2567 2.54869 67.111 1.93921C67.9652 1.30195 68.9333 0.831039 70.0724 0.498686C71.2112 0.166333 72.4071 0.027771 73.66 0.027771C74.2865 0.027771 74.9416 0.0555488 75.568 0.138555C76.2231 0.221562 76.821 0.332346 77.419 0.44313C77.9883 0.581693 78.5295 0.720255 79.0421 0.886595C79.5547 1.05261 79.9531 1.21895 80.238 1.38496C80.6367 1.60686 80.9212 1.82842 81.0922 2.07777C81.2632 2.29934 81.3485 2.60391 81.3485 2.99182V4.29378C81.3485 4.87548 81.1208 5.18039 80.6935 5.18039C80.4657 5.18039 80.0956 5.06927 79.6118 4.84771C77.9883 4.12744 76.166 3.76731 74.1444 3.76731C72.5213 3.76731 71.2397 4.01666 70.357 4.54313C69.4745 5.06927 69.0187 5.87287 69.0187 7.00849C69.0187 7.78431 69.3035 8.44901 69.8729 8.97548C70.4426 9.50163 71.4961 10.0281 73.0053 10.499L77.0488 11.7457C79.0989 12.383 80.5796 13.2693 81.4624 14.4049C82.3452 15.5408 82.7725 16.8428 82.7725 18.2833C82.7725 19.4745 82.5158 20.5549 82.0318 21.4967C81.5195 22.4386 80.8359 23.2696 79.9531 23.9346C79.0703 24.6271 78.0169 25.1258 76.7925 25.4859C75.5109 25.8738 74.1726 26.0676 72.7205 26.0676Z" fill="#252F3E"/>
<path id="Vector_2" d="M78.1022 39.5307C68.7341 46.2624 55.1227 49.836 43.4197 49.836C27.0178 49.836 12.2394 43.9353 1.07722 34.1288C0.194429 33.3533 0.991563 32.3007 2.045 32.9098C14.1186 39.7249 29.0111 43.8523 44.4163 43.8523C54.8096 43.8523 66.2282 41.7471 76.7357 37.4255C78.3017 36.7327 79.64 38.4229 78.1022 39.5307ZM82.0035 35.2092C80.8077 33.7134 74.0873 34.4889 71.0405 34.849C70.1292 34.9601 69.9868 34.1843 70.8128 33.6026C76.166 29.9458 84.965 30.9987 85.9899 32.2173C87.0151 33.4641 85.705 42.0239 80.6935 46.1239C79.9249 46.7611 79.1845 46.4288 79.5262 45.5977C80.6649 42.8549 83.1994 36.6775 82.0035 35.2092Z" fill="#FF9900"/>
</g>
<defs>
<clipPath id="clip0_5_35">
<rect width="86" height="50" fill="white" transform="translate(0.505005)"/>
</clipPath>
</defs>
</svg>
