<svg width="77" height="74" viewBox="0 0 77 74" fill="none" xmlns="http://www.w3.org/2000/svg">
<g id="vscode-icons:file-type-azure">
<path id="Vector" d="M27.4446 6.55362H47.0859L26.6965 65.3721C26.4881 65.9777 26.0897 66.5044 25.5575 66.8778C25.0253 67.2512 24.3861 67.4525 23.7301 67.4533H8.44463C7.94829 67.4523 7.45935 67.3362 7.01826 67.1146C6.57717 66.893 6.19662 66.5723 5.90811 66.179C5.6196 65.7858 5.43142 65.3313 5.35915 64.8532C5.28688 64.3751 5.33259 63.8871 5.4925 63.4296L24.4925 8.6233C24.7009 8.01766 25.0993 7.49099 25.6315 7.11758C26.1637 6.74417 26.8029 6.54287 27.4589 6.54205L27.4446 6.55362Z" fill="url(#paint0_linear_5_42)"/>
<path id="Vector_2" d="M55.985 46.0049H24.8416C24.5522 46.0048 24.2694 46.0896 24.0301 46.2482C23.7909 46.4068 23.6062 46.6319 23.5001 46.8941C23.394 47.1563 23.3714 47.4436 23.4353 47.7185C23.4992 47.9934 23.6467 48.2431 23.8584 48.4353L43.8725 66.6231C44.4529 67.1502 45.2164 67.4442 46.01 67.4464H63.6468L55.985 46.0049Z" fill="#0078D4"/>
<path id="Vector_3" d="M27.4446 6.55361C26.7823 6.55127 26.1366 6.75509 25.6017 7.13532C25.0667 7.51556 24.6706 8.05231 24.4711 8.66723L5.50675 63.3787C5.33743 63.8383 5.28426 64.3309 5.35176 64.8147C5.41926 65.2986 5.60543 65.7595 5.89453 66.1585C6.18364 66.5575 6.56717 66.8828 7.01269 67.107C7.45822 67.3311 7.95264 67.4476 8.45413 67.4464H24.1291C24.7131 67.3448 25.2589 67.0941 25.7108 66.7199C26.1627 66.3457 26.5045 65.8615 26.7013 65.3165L30.4823 54.464L43.9913 66.7341C44.5575 67.1904 45.2679 67.4427 46.0029 67.4487H63.5779L55.871 46.0072H33.4059L47.1571 6.55361H27.4446Z" fill="url(#paint1_linear_5_42)"/>
<path id="Vector_4" d="M52.5318 8.6233C52.3241 8.01765 51.9262 7.49086 51.3944 7.11739C50.8625 6.74392 50.2235 6.54265 49.5678 6.54205H27.6798C28.3355 6.54265 28.9745 6.74392 29.5064 7.11739C30.0382 7.49086 30.4361 8.01765 30.6438 8.6233L49.6438 63.4296C49.8025 63.8877 49.8469 64.3761 49.7734 64.8543C49.6998 65.3325 49.5104 65.7867 49.2207 66.1795C48.9311 66.5723 48.5495 66.8922 48.1077 67.1129C47.6658 67.3336 47.1764 67.4487 46.6798 67.4487H68.5701C69.0653 67.4462 69.5528 67.3292 69.9925 67.1074C70.4322 66.8856 70.8116 66.5654 71.0993 66.173C71.3871 65.7806 71.575 65.3272 71.6477 64.8503C71.7204 64.3734 71.6758 63.8864 71.5175 63.4296L52.5318 8.6233Z" fill="url(#paint2_linear_5_42)"/>
</g>
<defs>
<linearGradient id="paint0_linear_5_42" x1="29.7964" y1="11.1323" x2="12.0081" y2="66.8322" gradientUnits="userSpaceOnUse">
<stop stop-color="#114A8B"/>
<stop offset="1" stop-color="#0669BC"/>
</linearGradient>
<linearGradient id="paint1_linear_5_42" x1="39.8792" y1="39.2355" x2="36.1196" y2="40.2631" gradientUnits="userSpaceOnUse">
<stop stop-opacity="0.3"/>
<stop offset="0.071" stop-opacity="0.2"/>
<stop offset="0.321" stop-opacity="0.1"/>
<stop offset="0.623" stop-opacity="0.05"/>
<stop offset="1" stop-opacity="0"/>
</linearGradient>
<linearGradient id="paint2_linear_5_42" x1="44.5669" y1="8.89871" x2="64.9191" y2="63.5352" gradientUnits="userSpaceOnUse">
<stop stop-color="#3CCBF4"/>
<stop offset="1" stop-color="#2892DF"/>
</linearGradient>
</defs>
</svg>
