<svg xmlns="http://www.w3.org/2000/svg" xmlns:xlink="http://www.w3.org/1999/xlink" width="500" zoomAndPan="magnify" viewBox="0 0 375 374.999991" height="500" preserveAspectRatio="xMidYMid meet" version="1.0"><defs><clipPath id="4ebe247aa4"><path d="M 145 32.648438 L 313 32.648438 L 313 166 L 145 166 Z M 145 32.648438 " clip-rule="nonzero"/></clipPath><clipPath id="0c35bd1544"><path d="M 209 143 L 341.25 143 L 341.25 311 L 209 311 Z M 209 143 " clip-rule="nonzero"/></clipPath><clipPath id="183ee589b0"><path d="M 61 205 L 229 205 L 229 337.148438 L 61 337.148438 Z M 61 205 " clip-rule="nonzero"/></clipPath><clipPath id="98c7a4df22"><path d="M 37.5 59 L 170 59 L 170 227 L 37.5 227 Z M 37.5 59 " clip-rule="nonzero"/></clipPath></defs><g clip-path="url(#4ebe247aa4)"><path fill="#545454" d="M 305.066406 63.578125 L 286.980469 63.578125 C 282.804688 63.578125 279.445312 66.9375 279.445312 71.113281 L 279.445312 89.242188 C 279.445312 91.480469 278.410156 93.589844 276.6875 94.96875 L 266.054688 103.410156 C 264.246094 104.828125 261.964844 105.390625 259.636719 105.390625 C 259.636719 105.390625 259.59375 105.390625 259.59375 105.390625 L 214.945312 105.390625 C 212.617188 105.390625 210.464844 104.3125 209.042969 102.503906 L 194.363281 83.34375 C 191.949219 80.15625 190.617188 76.28125 190.660156 72.277344 L 190.660156 40.199219 C 190.660156 36.023438 187.300781 32.664062 183.125 32.664062 L 152.636719 32.664062 C 148.460938 32.664062 145.101562 36.023438 145.101562 40.199219 L 145.101562 70.683594 C 145.101562 74.859375 148.460938 78.21875 152.636719 78.21875 C 152.636719 78.21875 163.617188 78.175781 172.746094 78.132812 C 180.453125 78.089844 187.6875 81.664062 192.382812 87.734375 L 204.179688 103.105469 C 205.988281 105.476562 207.453125 109.867188 207.453125 112.839844 L 207.453125 157.488281 C 207.453125 161.667969 210.808594 165.023438 214.988281 165.023438 L 259.59375 165.023438 C 263.773438 165.023438 267.128906 161.667969 267.128906 157.488281 L 267.128906 112.839844 C 267.128906 112.621094 267.128906 112.40625 267.085938 112.191406 C 266.828125 109.179688 268.164062 106.207031 270.53125 104.355469 L 279.445312 97.292969 C 280.996094 96.089844 283.019531 95.875 284.914062 96.433594 C 285.558594 96.605469 286.25 96.734375 286.9375 96.734375 L 305.023438 96.734375 C 309.199219 96.734375 312.558594 93.375 312.558594 89.199219 L 312.558594 71.113281 C 312.601562 66.9375 309.242188 63.578125 305.066406 63.578125 Z M 305.066406 63.578125 " fill-opacity="1" fill-rule="nonzero"/></g><path fill="#545454" d="M 251.585938 58.023438 C 251.585938 58.964844 251.496094 59.894531 251.3125 60.8125 C 251.128906 61.734375 250.855469 62.628906 250.496094 63.496094 C 250.140625 64.363281 249.699219 65.1875 249.175781 65.96875 C 248.65625 66.746094 248.0625 67.46875 247.398438 68.132812 C 246.734375 68.796875 246.011719 69.390625 245.234375 69.910156 C 244.453125 70.433594 243.628906 70.871094 242.761719 71.230469 C 241.894531 71.589844 241 71.863281 240.078125 72.046875 C 239.160156 72.230469 238.230469 72.320312 237.289062 72.320312 C 236.351562 72.320312 235.421875 72.230469 234.5 72.046875 C 233.582031 71.863281 232.6875 71.589844 231.820312 71.230469 C 230.953125 70.871094 230.128906 70.433594 229.347656 69.910156 C 228.566406 69.390625 227.847656 68.796875 227.183594 68.132812 C 226.519531 67.46875 225.925781 66.746094 225.40625 65.96875 C 224.882812 65.1875 224.441406 64.363281 224.082031 63.496094 C 223.722656 62.628906 223.453125 61.734375 223.269531 60.8125 C 223.085938 59.894531 222.996094 58.964844 222.996094 58.023438 C 222.996094 57.085938 223.085938 56.15625 223.269531 55.234375 C 223.453125 54.316406 223.722656 53.421875 224.082031 52.554688 C 224.441406 51.6875 224.882812 50.863281 225.40625 50.082031 C 225.925781 49.300781 226.519531 48.582031 227.183594 47.917969 C 227.847656 47.253906 228.566406 46.660156 229.347656 46.140625 C 230.128906 45.617188 230.953125 45.175781 231.820312 44.816406 C 232.6875 44.457031 233.582031 44.1875 234.5 44.003906 C 235.421875 43.820312 236.351562 43.730469 237.289062 43.730469 C 238.230469 43.730469 239.160156 43.820312 240.078125 44.003906 C 241 44.1875 241.894531 44.457031 242.761719 44.816406 C 243.628906 45.175781 244.453125 45.617188 245.234375 46.140625 C 246.011719 46.660156 246.734375 47.253906 247.398438 47.917969 C 248.0625 48.582031 248.65625 49.300781 249.175781 50.082031 C 249.699219 50.863281 250.140625 51.6875 250.496094 52.554688 C 250.855469 53.421875 251.128906 54.316406 251.3125 55.234375 C 251.496094 56.15625 251.585938 57.085938 251.585938 58.023438 Z M 251.585938 58.023438 " fill-opacity="1" fill-rule="nonzero"/><g clip-path="url(#0c35bd1544)"><path fill="#141418" d="M 310.664062 303.113281 L 310.664062 285.027344 C 310.664062 280.851562 307.304688 277.492188 303.128906 277.492188 L 285 277.492188 C 282.761719 277.492188 280.652344 276.460938 279.273438 274.738281 L 270.832031 264.101562 C 269.414062 262.292969 268.851562 260.011719 268.851562 257.6875 C 268.851562 257.6875 268.851562 257.644531 268.851562 257.644531 L 268.851562 212.992188 C 268.851562 210.667969 269.929688 208.515625 271.738281 207.09375 L 290.898438 192.410156 C 294.085938 190 297.960938 188.664062 301.964844 188.707031 L 334.042969 188.707031 C 338.21875 188.707031 341.578125 185.347656 341.578125 181.171875 L 341.578125 150.6875 C 341.578125 146.511719 338.21875 143.152344 334.042969 143.152344 L 303.558594 143.152344 C 299.382812 143.152344 296.023438 146.511719 296.023438 150.6875 C 296.023438 150.6875 296.066406 161.667969 296.109375 170.792969 C 296.152344 178.503906 292.578125 185.734375 286.507812 190.429688 L 271.132812 202.226562 C 268.765625 204.035156 264.375 205.5 261.402344 205.5 L 216.796875 205.5 C 212.617188 205.5 209.257812 208.859375 209.257812 213.035156 L 209.257812 257.644531 C 209.257812 261.820312 212.617188 265.179688 216.796875 265.179688 L 261.402344 265.179688 C 261.617188 265.179688 261.835938 265.179688 262.050781 265.136719 C 265.0625 264.878906 268.035156 266.210938 269.886719 268.582031 L 276.949219 277.492188 C 278.152344 279.042969 278.367188 281.066406 277.808594 282.960938 C 277.636719 283.609375 277.507812 284.296875 277.507812 284.984375 L 277.507812 303.070312 C 277.507812 307.246094 280.867188 310.605469 285.042969 310.605469 L 303.128906 310.605469 C 307.304688 310.648438 310.664062 307.289062 310.664062 303.113281 Z M 310.664062 303.113281 " fill-opacity="1" fill-rule="nonzero"/></g><path fill="#141418" d="M 330.511719 235.339844 C 330.511719 236.277344 330.421875 237.207031 330.238281 238.128906 C 330.054688 239.046875 329.78125 239.941406 329.425781 240.808594 C 329.066406 241.675781 328.625 242.5 328.101562 243.28125 C 327.582031 244.0625 326.988281 244.785156 326.324219 245.449219 C 325.660156 246.109375 324.9375 246.703125 324.160156 247.226562 C 323.378906 247.746094 322.554688 248.1875 321.6875 248.546875 C 320.820312 248.90625 319.925781 249.175781 319.003906 249.359375 C 318.085938 249.542969 317.15625 249.632812 316.214844 249.632812 C 315.277344 249.632812 314.347656 249.542969 313.429688 249.359375 C 312.507812 249.175781 311.613281 248.90625 310.746094 248.546875 C 309.878906 248.1875 309.054688 247.746094 308.273438 247.226562 C 307.496094 246.703125 306.773438 246.109375 306.109375 245.449219 C 305.445312 244.785156 304.851562 244.0625 304.332031 243.28125 C 303.808594 242.5 303.367188 241.675781 303.007812 240.808594 C 302.648438 239.941406 302.378906 239.046875 302.195312 238.128906 C 302.011719 237.207031 301.921875 236.277344 301.921875 235.339844 C 301.921875 234.402344 302.011719 233.472656 302.195312 232.550781 C 302.378906 231.628906 302.648438 230.734375 303.007812 229.867188 C 303.367188 229 303.808594 228.175781 304.332031 227.398438 C 304.851562 226.617188 305.445312 225.894531 306.109375 225.230469 C 306.773438 224.566406 307.492188 223.972656 308.273438 223.453125 C 309.054688 222.929688 309.878906 222.492188 310.746094 222.132812 C 311.613281 221.773438 312.507812 221.5 313.429688 221.320312 C 314.347656 221.136719 315.277344 221.042969 316.214844 221.042969 C 317.15625 221.042969 318.085938 221.136719 319.003906 221.320312 C 319.925781 221.5 320.820312 221.773438 321.6875 222.132812 C 322.554688 222.492188 323.378906 222.929688 324.160156 223.453125 C 324.9375 223.972656 325.660156 224.566406 326.324219 225.230469 C 326.988281 225.894531 327.582031 226.617188 328.101562 227.398438 C 328.625 228.175781 329.066406 229 329.425781 229.867188 C 329.78125 230.734375 330.054688 231.628906 330.238281 232.550781 C 330.421875 233.472656 330.511719 234.402344 330.511719 235.339844 Z M 330.511719 235.339844 " fill-opacity="1" fill-rule="nonzero"/><g clip-path="url(#183ee589b0)"><path fill="#ffd12f" d="M 68.933594 306.558594 L 87.015625 306.558594 C 91.195312 306.558594 94.550781 303.199219 94.550781 299.023438 L 94.550781 280.894531 C 94.550781 278.65625 95.585938 276.546875 97.308594 275.167969 L 107.945312 266.730469 C 109.75 265.308594 112.035156 264.75 114.359375 264.75 C 114.359375 264.75 114.402344 264.75 114.402344 264.75 L 159.054688 264.75 C 161.378906 264.75 163.53125 265.824219 164.953125 267.632812 L 179.636719 286.792969 C 182.046875 289.980469 183.382812 293.855469 183.339844 297.859375 L 183.339844 329.9375 C 183.339844 334.113281 186.695312 337.472656 190.875 337.472656 L 221.359375 337.472656 C 225.535156 337.472656 228.894531 334.113281 228.894531 329.9375 L 228.894531 299.453125 C 228.894531 295.277344 225.535156 291.917969 221.359375 291.917969 C 221.359375 291.917969 210.378906 291.960938 201.25 292.003906 C 193.542969 292.046875 186.308594 288.472656 181.617188 282.402344 L 169.816406 267.03125 C 168.011719 264.660156 166.546875 260.269531 166.546875 257.300781 L 166.546875 212.691406 C 166.546875 208.515625 163.1875 205.15625 159.011719 205.15625 L 114.402344 205.15625 C 110.226562 205.15625 106.867188 208.515625 106.867188 212.691406 L 106.867188 257.300781 C 106.867188 257.515625 106.867188 257.730469 106.910156 257.945312 C 107.167969 260.957031 105.832031 263.929688 103.464844 265.78125 L 94.550781 272.84375 C 93.003906 274.046875 90.976562 274.265625 89.082031 273.703125 C 88.4375 273.53125 87.75 273.402344 87.058594 273.402344 L 68.976562 273.402344 C 64.800781 273.402344 61.441406 276.761719 61.441406 280.9375 L 61.441406 299.023438 C 61.398438 303.199219 64.800781 306.558594 68.933594 306.558594 Z M 68.933594 306.558594 " fill-opacity="1" fill-rule="nonzero"/></g><path fill="#ffd12f" d="M 151 312.113281 C 151 313.050781 150.910156 313.980469 150.726562 314.902344 C 150.542969 315.820312 150.273438 316.714844 149.914062 317.582031 C 149.554688 318.449219 149.113281 319.273438 148.59375 320.054688 C 148.070312 320.835938 147.476562 321.558594 146.816406 322.21875 C 146.152344 322.882812 145.429688 323.476562 144.648438 324 C 143.867188 324.519531 143.042969 324.960938 142.175781 325.320312 C 141.308594 325.679688 140.414062 325.949219 139.496094 326.132812 C 138.574219 326.316406 137.644531 326.40625 136.707031 326.40625 C 135.769531 326.40625 134.839844 326.316406 133.917969 326.132812 C 132.996094 325.949219 132.101562 325.679688 131.234375 325.320312 C 130.367188 324.960938 129.542969 324.519531 128.765625 324 C 127.984375 323.476562 127.261719 322.882812 126.597656 322.21875 C 125.933594 321.558594 125.339844 320.835938 124.820312 320.054688 C 124.296875 319.273438 123.859375 318.449219 123.5 317.582031 C 123.140625 316.714844 122.867188 315.820312 122.6875 314.902344 C 122.503906 313.980469 122.410156 313.050781 122.410156 312.113281 C 122.410156 311.171875 122.503906 310.242188 122.6875 309.324219 C 122.867188 308.402344 123.140625 307.507812 123.5 306.640625 C 123.859375 305.773438 124.296875 304.949219 124.820312 304.171875 C 125.339844 303.390625 125.933594 302.667969 126.597656 302.003906 C 127.261719 301.339844 127.984375 300.746094 128.765625 300.226562 C 129.542969 299.703125 130.367188 299.265625 131.234375 298.90625 C 132.101562 298.546875 132.996094 298.273438 133.917969 298.089844 C 134.839844 297.910156 135.769531 297.816406 136.707031 297.816406 C 137.644531 297.816406 138.574219 297.910156 139.496094 298.089844 C 140.414062 298.273438 141.308594 298.546875 142.175781 298.90625 C 143.042969 299.265625 143.867188 299.703125 144.648438 300.226562 C 145.429688 300.746094 146.152344 301.339844 146.816406 302.003906 C 147.476562 302.667969 148.070312 303.390625 148.59375 304.171875 C 149.113281 304.949219 149.554688 305.773438 149.914062 306.640625 C 150.273438 307.507812 150.542969 308.402344 150.726562 309.324219 C 150.910156 310.242188 151 311.171875 151 312.113281 Z M 151 312.113281 " fill-opacity="1" fill-rule="nonzero"/><g clip-path="url(#98c7a4df22)"><path fill="#ffde59" d="M 68.414062 66.980469 L 68.414062 85.066406 C 68.414062 89.242188 71.773438 92.601562 75.949219 92.601562 L 94.078125 92.601562 C 96.316406 92.601562 98.425781 93.632812 99.804688 95.355469 L 108.246094 105.992188 C 109.664062 107.800781 110.226562 110.082031 110.226562 112.40625 C 110.226562 112.40625 110.226562 112.449219 110.226562 112.449219 L 110.226562 157.101562 C 110.226562 159.425781 109.148438 161.582031 107.339844 163 L 88.179688 177.683594 C 84.992188 180.09375 81.117188 181.429688 77.113281 181.386719 L 45.035156 181.386719 C 40.859375 181.386719 37.5 184.746094 37.5 188.921875 L 37.5 219.40625 C 37.5 223.585938 40.859375 226.941406 45.035156 226.941406 L 75.476562 226.941406 C 79.652344 226.941406 83.011719 223.585938 83.011719 219.40625 C 83.011719 219.40625 82.96875 208.425781 82.925781 199.300781 C 82.882812 191.59375 86.457031 184.359375 92.527344 179.664062 L 107.902344 167.867188 C 110.269531 166.058594 114.660156 164.59375 117.632812 164.59375 L 162.28125 164.59375 C 166.460938 164.59375 169.816406 161.234375 169.816406 157.058594 L 169.816406 112.449219 C 169.816406 108.273438 166.460938 104.914062 162.28125 104.914062 L 117.675781 104.914062 C 117.460938 104.914062 117.242188 104.914062 117.027344 104.957031 C 114.015625 105.21875 111.042969 103.882812 109.191406 101.515625 L 102.128906 92.601562 C 100.925781 91.050781 100.710938 89.027344 101.269531 87.132812 C 101.441406 86.488281 101.570312 85.796875 101.570312 85.109375 L 101.570312 67.023438 C 101.570312 62.847656 98.210938 59.488281 94.035156 59.488281 L 75.949219 59.488281 C 71.773438 59.445312 68.414062 62.847656 68.414062 66.980469 Z M 68.414062 66.980469 " fill-opacity="1" fill-rule="nonzero"/></g><path fill="#ffde59" d="M 77.15625 134.753906 C 77.15625 135.695312 77.066406 136.625 76.882812 137.542969 C 76.699219 138.464844 76.429688 139.359375 76.070312 140.226562 C 75.710938 141.09375 75.269531 141.917969 74.746094 142.695312 C 74.226562 143.476562 73.632812 144.199219 72.96875 144.863281 C 72.304688 145.527344 71.582031 146.121094 70.804688 146.640625 C 70.023438 147.164062 69.199219 147.601562 68.332031 147.960938 C 67.464844 148.320312 66.570312 148.59375 65.648438 148.777344 C 64.730469 148.957031 63.800781 149.050781 62.863281 149.050781 C 61.921875 149.050781 60.992188 148.957031 60.074219 148.777344 C 59.152344 148.59375 58.257812 148.320312 57.390625 147.960938 C 56.523438 147.601562 55.699219 147.164062 54.917969 146.640625 C 54.140625 146.121094 53.417969 145.527344 52.753906 144.863281 C 52.089844 144.199219 51.496094 143.476562 50.976562 142.695312 C 50.453125 141.917969 50.011719 141.09375 49.652344 140.226562 C 49.296875 139.359375 49.023438 138.464844 48.839844 137.542969 C 48.65625 136.625 48.566406 135.695312 48.566406 134.753906 C 48.566406 133.816406 48.65625 132.886719 48.839844 131.964844 C 49.023438 131.046875 49.296875 130.152344 49.652344 129.285156 C 50.011719 128.417969 50.453125 127.59375 50.976562 126.8125 C 51.496094 126.03125 52.089844 125.308594 52.753906 124.648438 C 53.417969 123.984375 54.140625 123.390625 54.917969 122.867188 C 55.699219 122.347656 56.523438 121.90625 57.390625 121.546875 C 58.257812 121.1875 59.152344 120.917969 60.074219 120.734375 C 60.992188 120.550781 61.921875 120.460938 62.863281 120.460938 C 63.800781 120.460938 64.730469 120.550781 65.648438 120.734375 C 66.570312 120.917969 67.464844 121.1875 68.332031 121.546875 C 69.199219 121.90625 70.023438 122.347656 70.804688 122.867188 C 71.582031 123.390625 72.304688 123.984375 72.96875 124.648438 C 73.632812 125.308594 74.226562 126.03125 74.746094 126.8125 C 75.269531 127.59375 75.710938 128.417969 76.070312 129.285156 C 76.429688 130.152344 76.699219 131.046875 76.882812 131.964844 C 77.066406 132.886719 77.15625 133.816406 77.15625 134.753906 Z M 77.15625 134.753906 " fill-opacity="1" fill-rule="nonzero"/></svg>