<svg xmlns="http://www.w3.org/2000/svg" viewBox="0 0 120 80" fill="none">
  <path fill-rule="evenodd" clip-rule="evenodd" d="M60 20C43.4 20 30 33.2 30 49.5C30 62.5 38.3 73.4 50 77.3C51.5 77.6 52 76.7 52 75.9C52 75.2 52 73.3 52 70.6C44.3 72.4 42.5 66.9 42.5 66.9C41.1 63.4 39.1 62.5 39.1 62.5C36.4 60.5 39.3 60.6 39.3 60.6C42.3 60.8 44 63.8 44 63.8C46.7 68.2 50.8 67 52.1 66.3C52.4 64.4 53.2 63.2 54 62.5C47.9 61.8 41.5 59 41.5 47.6C41.5 44.1 42.7 41.3 44.1 39.2C43.7 38.4 42.7 35.2 44.4 30.9C44.4 30.9 46.9 30 52 33.4C54.5 32.7 57.3 32.3 60 32.3C62.7 32.3 65.5 32.7 68 33.4C73.1 30 75.6 30.9 75.6 30.9C77.3 35.2 76.3 38.4 75.9 39.2C77.3 41.3 78.5 44.1 78.5 47.6C78.5 59.1 72.1 61.8 66 62.5C67 63.4 67.9 65.1 67.9 67.8C67.9 71.8 67.9 75 67.9 75.9C67.9 76.7 68.4 77.6 69.9 77.3C81.7 73.4 90 62.5 90 49.5C90 33.2 76.6 20 60 20Z" fill="white"/>
</svg> 