<svg xmlns="http://www.w3.org/2000/svg" viewBox="0 0 120 80" fill="none">
  <path d="M55.5 39.2L51.3 35L51.1 34.9C50.9 34.6 50.5 34.3 50.1 34.3C49.7 34.3 49.4 34.5 49.1 34.8L42.1 41.8L39.4 39.1L36.5 36.2C36.3 36 35.9 35.7 35.5 35.7C35.1 35.7 34.7 35.9 34.5 36.2L27.2 43.5C27 43.7 26.7 44.1 26.7 44.5C26.7 44.9 26.9 45.3 27.2 45.5L33.9 52.3L34 52.4C34.2 52.7 34.6 52.9 35 52.9C35.4 52.9 35.8 52.7 36 52.4L55.3 33.1C55.5 32.9 55.8 32.5 55.8 32.1C56 31.7 55.8 31.4 55.5 39.2Z" fill="white"/>
  <path d="M55.5 32.2C53.1 29.8 49.4 30.6 47.8 32.2L35.2 44.7C33.8 46.1 33.8 48.4 35.2 49.8C37.6 52.2 41.3 51.4 42.9 49.8L55.5 37.3C56.9 35.9 56.9 33.6 55.5 32.2Z" fill="white"/>
  <path d="M77 36.2C75.5 32.7 73.2 30.4 69.6 29C66 27.5 62.3 28.3 59.1 31.5L46.5 44C45.8 44.7 45.4 45.6 45.4 46.5C45.4 47.4 45.8 48.3 46.5 49C47.2 49.7 48.1 50.1 49 50.1C49.9 50.1 50.8 49.7 51.5 49L64.1 36.5C65.6 35 68.7 35 70.2 36.5C71.7 38 71.7 41.1 70.2 42.6L57.6 55.1C57.3 55.4 57.1 55.8 57.1 56.2C57.1 56.6 57.3 57 57.6 57.3C57.9 57.6 58.3 57.8 58.7 57.8C59.1 57.8 59.5 57.6 59.8 57.3L72.3 44.8C76.8 40.2 78.5 39.7 77 36.2Z" fill="white"/>
  <path d="M92.8 36.2C91.3 32.7 85.4 30.4 81.8 29C78.2 27.5 74.5 28.3 71.3 31.5L58.7 44C58 44.7 57.6 45.6 57.6 46.5C57.6 47.4 58 48.3 58.7 49C59.4 49.7 60.3 50.1 61.2 50.1C62.1 50.1 63 49.7 63.7 49L76.3 36.5C77.8 35 78 35 79.5 36.5C81 38 83 41.1 81.5 42.6L68.9 55.1C68.6 55.4 68.4 55.8 68.4 56.2C68.4 56.6 68.6 57 68.9 57.3C69.2 57.6 69.6 57.8 70 57.8C70.4 57.8 70.8 57.6 71.1 57.3L83.7 44.8C88.2 40.2 94.3 39.7 92.8 36.2Z" fill="white"/>
</svg> 