<svg xmlns="http://www.w3.org/2000/svg" viewBox="0 0 120 80" fill="none">
  <path d="M36 26V37H40V31.5H45.5V37H49.5V26H45.5V28.5H40V26H36Z" fill="white"/>
  <path d="M64 29.5C64 27.5 62.5 26 60.5 26H51V37H55V34H58L60.5 37H65L62 33.5C63.5 32.5 64 31 64 29.5ZM60 29.5C60 30.5 59 31.5 58 31.5H55V27.5H58C59 27.5 60 28.5 60 29.5Z" fill="white"/>
  <path d="M66 33.5V26H70V33.5C70 35 71 36 72.5 36C74 36 75 35 75 33.5V26H79V33.5C79 37 76 39.5 72.5 39.5C69 39.5 66 37 66 33.5Z" fill="white"/>
  <path d="M89 31.5H86V29H89C91 29 91 32 89 32L87.5 31.5H86V35.5H82V26H89C94 26 94 31.5 89 31.5Z" fill="white"/>
  <path d="M33.5 46.5C33.5 45 32 44 30.5 44C29 44 27.5 45 27.5 46.5C27.5 48 29 49 30.5 49C32.5 49 33.5 48 33.5 46.5Z" fill="white"/>
  <path d="M83 48H86.5V52.5C85 53.5 82.5 54 80.5 54C75 54 71 50 71 44.5C71 39 75 35 80.5 35C82.5 35 85 35.5 86.5 36.5V41H83V40C82 39.5 81 39 80 39C77 39 75 41.5 75 44.5C75 47.5 77 50 80 50C81 50 82 49.5 83 49V48Z" fill="white"/>
  <path d="M37 35.5H41V48.5H48V52.5H37V35.5Z" fill="white"/>
  <path d="M51 35.5H55V48.5H62V52.5H51V35.5Z" fill="white"/>
  <path d="M64 44C64 39 67.5 35 72.5 35C77.5 35 81 39 81 44C81 49 77.5 53 72.5 53C67.5 53 64 49 64 44ZM77 44C77 41 75 39 72.5 39C70 39 68 41 68 44C68 47 70 49 72.5 49C75 49 77 47 77 44Z" fill="white"/>
</svg> 