<svg xmlns="http://www.w3.org/2000/svg" viewBox="0 0 120 80" fill="none">
  <path d="M47.2 48.3H31.3C25.6 48.3 21 43.7 21 38C21 32.3 25.6 27.7 31.3 27.7H47.2C52.9 27.7 57.5 32.3 57.5 38C57.5 43.7 52.9 48.3 47.2 48.3ZM31.3 32.4C28.2 32.4 25.7 34.9 25.7 38C25.7 41.1 28.2 43.6 31.3 43.6H47.2C50.3 43.6 52.8 41.1 52.8 38C52.8 34.9 50.3 32.4 47.2 32.4H31.3Z" fill="white"/>
  <path d="M62.2 48.3V27.7H66.9V43.6H78.2V48.3H62.2Z" fill="white"/>
  <path d="M94.4 48.3H78.5C78.5 48.3 78.5 46 78.5 43.5C78.5 41 78.5 38.7 78.5 36.2C78.5 33.7 78.5 31.4 78.5 29C78.5 26.9 78.5 29 78.5 27.7H94.4C95.7 27.7 97 27.9 98.1 28.4C99.3 28.9 100.4 29.6 101.2 30.5C102.1 31.4 102.8 32.4 103.3 33.6C103.8 34.8 104 36 104 37.3C104 38.6 103.8 39.8 103.3 41C102.8 42.2 102.1 43.2 101.2 44.1C100.3 45 99.3 45.7 98.1 46.2C97 46.9 95.7 48.3 94.4 48.3ZM83.2 43.6H94.4C97.5 43.6 99.3 41.8 99.3 37.3C99.3 35.1 98.8 33.6 97.8 32.6C96.8 31.6 95.2 32.4 94.4 32.4H83.2V43.6Z" fill="white"/>
</svg> 