<svg xmlns="http://www.w3.org/2000/svg" viewBox="0 0 120 80" fill="none">
  <path d="M40.3 28.7C43.4 25.5 47.6 23.6 52.3 23.6C57.1 23.6 61.5 25.7 64.6 29C67.1 27.1 70.2 26 73.6 26C83.1 26 90.9 33.7 90.9 43.3C90.9 52.8 83.2 60.5 73.7 60.5C72.8 60.5 71.9 60.4 71 60.3C68.7 64.2 64.5 66.8 59.6 66.8C57.2 66.8 54.9 66.2 52.9 65.1C50.4 69.6 45.7 72.6 40.2 72.6C34.1 72.6 28.9 69 26.6 63.7C25.6 63.9 24.5 64 23.4 64C15.4 64 9 57.5 9 49.4C9 43.6 12.1 38.6 16.7 36.2C16.6 35.4 16.5 34.6 16.5 33.8C16.5 26.1 22.5 20 29.8 20C32.8 20 35.6 21.1 37.7 22.8C38.1 24.7 39 26.6 40.3 28.7Z" fill="white"/>
</svg> 