<svg xmlns="http://www.w3.org/2000/svg" viewBox="0 0 120 80" fill="none">
  <path d="M29 28.1H38.7C41.9 28.1 44.6 29.4 44.6 33.7C44.6 37.7 42.1 39.6 38.6 39.6H34V45.4H29V28.1ZM38.2 35.6C39.5 35.6 39.9 34.6 39.9 33.8C39.9 32.9 39.5 32.1 38.1 32.1H34V35.6H38.2Z" fill="white"/>
  <path d="M46.6 28.1H59.1V32.2H51.6V34.9H58.5V38.6H51.6V41.3H59.3V45.4H46.6V28.1Z" fill="white"/>
  <path d="M86.3 30.4C84.3 28.9 81.9 28 79.4 28C73.5 28 69 32.5 69 38.4C69 44.3 73.5 48.8 79.4 48.8C82 48.8 84.4 47.9 86.3 46.4V40.8C85.1 42.5 82.8 43.7 80.1 43.7C76.5 43.7 73.6 41.2 73.6 38.1C73.6 34.9 76.5 32.5 80.1 32.5C82.8 32.5 85.1 33.7 86.3 35.3V30.4Z" fill="white"/>
  <path d="M91 28.1H96.2L98.8 34.5L101.8 28.1H107L99.1 45.4H94.1L95.6 42L91 28.1Z" fill="white"/>
</svg> 