<svg xmlns="http://www.w3.org/2000/svg" viewBox="0 0 120 80" fill="none">
  <path d="M70.1 34.5L69.4 31.4C69.4 31.3 69.3 31.2 69.2 31.1C69 31 68.9 31 68.8 31C68.7 31 66.8 31 66.8 31C66.7 31 66.6 30.9 66.6 30.8C66.3 29.5 65.7 28.4 64.8 27.5C63.3 26 61.1 25.1 58.7 25.1C58.7 25.1 58.6 25.1 58.6 25.1C58.5 24.5 58.3 23.9 58 23.3C57 21.3 55.3 20 53.4 20C53.2 20 53 20 52.8 20.1C52.7 20 52.5 20 52.4 20C52.3 20 52.2 20.1 52.1 20.1C51.9 20.2 51.8 20.3 51.7 20.5C51.2 21.4 51 22.6 51.2 24C49.3 24.7 47.7 25.8 46.8 27.3C46 28.7 45.8 30.5 46.3 32.6L51.8 56.6C51.8 56.6 57.6 58.2 63.3 59.7C65.4 60.2 67.4 60.7 69.2 61.1C69.2 61.1 69.2 61.1 69.2 61C70.7 49.3 71.3 43.1 71.3 41.7C71.3 40.3 71 38.5 70.1 34.5Z" fill="white"/>
  <path d="M63.5 34.3L61.5 41.4C61.5 41.4 60.2 40.8 58.5 40.8C56.1 40.8 56 42.2 56 42.6C56 44.8 64.3 46 64.3 52.5C64.3 57.5 61 60.6 56.8 60.6C51.9 60.6 49.2 57.4 49.2 57.4L50.6 52.4C50.6 52.4 53.4 54.7 55.6 54.7C57 54.7 57.5 53.6 57.4 52.8C57.2 49.9 50.4 49.3 50.4 43.4C50.4 38.5 53.9 34 61 34C64.1 34 63.5 34.3 63.5 34.3Z" fill="white"/>
</svg> 