<svg xmlns="http://www.w3.org/2000/svg" viewBox="0 0 120 80" fill="none">
  <path d="M46.4 49.6C46.4 52.4 44.1 54.6 41.4 54.6C38.6 54.6 36.3 52.4 36.3 49.6C36.3 46.9 38.6 44.6 41.4 44.6H46.4V49.6Z" fill="white"/>
  <path d="M48.9 49.6C48.9 46.9 51.1 44.6 53.9 44.6C56.6 44.6 58.9 46.9 58.9 49.6V62.1C58.9 64.9 56.6 67.1 53.9 67.1C51.1 67.1 48.9 64.9 48.9 62.1V49.6Z" fill="white"/>
  <path d="M53.9 33.1C51.1 33.1 48.9 30.9 48.9 28.1C48.9 25.4 51.1 23.1 53.9 23.1C56.6 23.1 58.9 25.4 58.9 28.1V33.1H53.9Z" fill="white"/>
  <path d="M53.9 35.6C56.6 35.6 58.9 37.9 58.9 40.6C58.9 43.4 56.6 45.6 53.9 45.6H41.4C38.6 45.6 36.4 43.4 36.4 40.6C36.4 37.9 38.6 35.6 41.4 35.6H53.9Z" fill="white"/>
  <path d="M70.4 40.6C70.4 37.9 72.6 35.6 75.4 35.6C78.1 35.6 80.4 37.9 80.4 40.6C80.4 43.4 78.1 45.6 75.4 45.6H70.4V40.6Z" fill="white"/>
  <path d="M67.9 40.6C67.9 43.4 65.6 45.6 62.9 45.6C60.1 45.6 57.9 43.4 57.9 40.6V28.1C57.9 25.4 60.1 23.1 62.9 23.1C65.6 23.1 67.9 25.4 67.9 28.1V40.6Z" fill="white"/>
  <path d="M62.9 57.1C65.6 57.1 67.9 59.4 67.9 62.1C67.9 64.9 65.6 67.1 62.9 67.1C60.1 67.1 57.9 64.9 57.9 62.1V57.1H62.9Z" fill="white"/>
  <path d="M62.9 54.6C60.1 54.6 57.9 52.4 57.9 49.6C57.9 46.9 60.1 44.6 62.9 44.6H75.4C78.1 44.6 80.4 46.9 80.4 49.6C80.4 52.4 78.1 54.6 75.4 54.6H62.9Z" fill="white"/>
</svg> 