<svg xmlns="http://www.w3.org/2000/svg" viewBox="0 0 120 80" fill="none">
  <path d="M60 20C42.3 20 28 33.4 28 50C28 66.6 42.3 80 60 80C77.7 80 92 66.6 92 50C92 33.4 77.7 20 60 20ZM60 71.3C47.1 71.3 36.7 61.8 36.7 50C36.7 38.2 47.1 28.7 60 28.7C72.9 28.7 83.3 38.2 83.3 50C83.3 61.8 72.9 71.3 60 71.3Z" fill="white"/>
  <path d="M67.5 44.3C67.5 40.8 64.9 38.1 60 38.1C55.1 38.1 52.5 40.8 52.5 44.8C52.5 50.9 61.9 49.3 61.9 52.4C61.9 53.7 60.6 54.4 58.7 54.4C56.5 54.4 54.7 53.2 53.7 52.4L52.3 56.8C53.9 58 56.3 58.8 58.9 58.8C64.1 58.8 67.2 56.2 67.2 51.9C67.2 45.2 57.8 47.1 57.8 44.1C57.8 43.1 58.8 42.5 60.5 42.5C62.4 42.5 64.2 43.3 65.3 44L67.5 44.3Z" fill="white"/>
</svg> 