<svg xmlns="http://www.w3.org/2000/svg" viewBox="0 0 120 80" fill="none">
  <path d="M54.7 30.7H49.3V25.3H54.7V30.7Z" fill="white"/>
  <path d="M42.7 30.7H37.3V25.3H42.7V30.7Z" fill="white"/>
  <path d="M54.7 18.7H49.3V13.3H54.7V18.7Z" fill="white"/>
  <path d="M42.7 18.7H37.3V13.3H42.7V18.7Z" fill="white"/>
  <path d="M54.7 42.7H49.3V37.3H54.7V42.7Z" fill="white"/>
  <path d="M42.7 42.7H37.3V37.3H42.7V42.7Z" fill="white"/>
  <path d="M42.7 54.7H37.3V49.3H42.7V54.7Z" fill="white"/>
  <path d="M54.7 54.7H49.3V49.3H54.7V54.7Z" fill="white"/>
  <path d="M66.7 30.7H61.3V25.3H66.7V30.7Z" fill="white"/>
  <path d="M78.7 30.7H73.3V25.3H78.7V30.7Z" fill="white"/>
  <path d="M66.7 18.7H61.3V13.3H66.7V18.7Z" fill="white"/>
  <path d="M78.7 18.7H73.3V13.3H78.7V18.7Z" fill="white"/>
  <path d="M66.7 42.7H61.3V37.3H66.7V42.7Z" fill="white"/>
  <path d="M78.7 42.7H73.3V37.3H78.7V42.7Z" fill="white"/>
  <path d="M66.7 54.7H61.3V49.3H66.7V54.7Z" fill="white"/>
  <path d="M78.7 54.7H73.3V49.3H78.7V54.7Z" fill="white"/>
  <path d="M60 36H54V30H60V36Z" fill="white"/>
  <path d="M48 48H42V42H48V48Z" fill="white"/>
  <path d="M72 48H66V42H72V48Z" fill="white"/>
  <path d="M60 60H54V54H60V60Z" fill="white"/>
  <path d="M60 24H54V18H60V24Z" fill="white"/>
  <path d="M48 24H42V18H48V24Z" fill="white"/>
  <path d="M72 24H66V18H72V24Z" fill="white"/>
  <path d="M48 60H42V54H48V60Z" fill="white"/>
  <path d="M72 60H66V54H72V60Z" fill="white"/>
  <path d="M48 36H42V30H48V36Z" fill="white"/>
  <path d="M72 36H66V30H72V36Z" fill="white"/>
  <path d="M60 48H54V42H60V48Z" fill="white"/>
</svg> 