<svg xmlns="http://www.w3.org/2000/svg" viewBox="0 0 120 80" fill="none">
  <g clip-path="url(#clip0_1_2)">
    <path d="M37.5 36C37.5 37 37.4 37.9 37.3 38.6C37.2 39.3 37 39.9 36.8 40.4C36.5 40.9 36.1 41.3 35.7 41.6C35.2 41.9 34.7 42 34.1 42C33.5 42 33 41.9 32.6 41.6C32.2 41.3 31.8 40.9 31.5 40.3C31.2 39.8 31 39.2 30.9 38.5C30.8 37.8 30.7 37 30.7 36C30.7 35 30.8 34.1 30.9 33.4C31 32.7 31.2 32.1 31.5 31.6C31.8 31.1 32.2 30.7 32.6 30.4C33 30.1 33.6 30 34.1 30C34.7 30 35.2 30.1 35.7 30.4C36.1 30.7 36.5 31.1 36.8 31.6C37.1 32.1 37.2 32.7 37.3 33.4C37.4 34.1 37.5 35 37.5 36ZM35.2 36C35.2 35.2 35.2 34.5 35.1 33.9C35 33.3 34.9 32.9 34.8 32.5C34.6 32.2 34.5 31.9 34.3 31.8C34.1 31.6 33.9 31.6 33.7 31.6C33.5 31.6 33.3 31.6 33.1 31.8C32.9 31.9 32.8 32.2 32.6 32.5C32.5 32.9 32.4 33.3 32.3 33.9C32.2 34.5 32.2 35.2 32.2 36C32.2 36.8 32.2 37.5 32.3 38.1C32.4 38.7 32.5 39.1 32.6 39.5C32.7 39.8 32.9 40.1 33.1 40.2C33.3 40.4 33.5 40.4 33.7 40.4C33.9 40.4 34.1 40.4 34.3 40.2C34.5 40.1 34.6 39.8 34.8 39.5C34.9 39.1 35 38.7 35.1 38.1C35.2 37.5 35.2 36.8 35.2 36Z" fill="white"/>
    <path d="M44.2 41.8L42.2 35.7H42.1L40.1 41.8H38.4L41.2 34.1L38.7 27.2H40.4L42.1 32.7H42.2L44 27.2H45.7L43.1 34.2L46 41.8H44.2Z" fill="white"/>
    <path d="M49.6 27.5C50.3 27.5 51 27.6 51.5 27.9C52 28.2 52.5 28.6 52.8 29.1C53.1 29.6 53.3 30.1 53.5 30.7C53.6 31.3 53.7 32 53.7 32.6C53.7 33.3 53.6 33.9 53.5 34.5C53.4 35.1 53.1 35.6 52.8 36.1C52.5 36.6 52 37 51.5 37.3C51 37.6 50.3 37.7 49.5 37.7H47.6V41.8H46.1V27.5H49.6ZM49.5 36.2C49.9 36.2 50.3 36.1 50.6 36C50.9 35.9 51.1 35.6 51.3 35.3C51.5 35 51.6 34.6 51.7 34.2C51.8 33.7 51.8 33.2 51.8 32.7C51.8 32.2 51.8 31.7 51.7 31.2C51.6 30.7 51.5 30.4 51.3 30.1C51.1 29.8 50.9 29.5 50.6 29.4C50.3 29.2 49.9 29.2 49.5 29.2H47.6V36.3H49.5V36.2Z" fill="white"/>
    <path d="M56.2 34C56.2 35.3 56.6 36.3 57.3 37C58 37.7 58.8 38 59.7 38C60.2 38 60.7 37.9 61.1 37.7C61.5 37.5 61.9 37.3 62.2 37.1L62.8 38.4C62.5 38.7 62 38.9 61.4 39.2C60.9 39.4 60.2 39.5 59.4 39.5C58.6 39.5 57.9 39.4 57.2 39.1C56.6 38.8 56.1 38.4 55.6 37.9C55.2 37.4 54.9 36.8 54.6 36.1C54.4 35.4 54.3 34.6 54.3 33.8C54.3 33 54.4 32.2 54.7 31.5C54.9 30.8 55.3 30.2 55.7 29.7C56.1 29.2 56.7 28.8 57.3 28.5C57.9 28.2 58.6 28.1 59.4 28.1C60.1 28.1 60.7 28.2 61.3 28.4C61.9 28.6 62.4 28.9 62.7 29.3C63.1 29.7 63.4 30.2 63.6 30.8C63.8 31.4 63.9 32.1 63.9 32.8V34H56.2ZM62.1 32.6C62.1 32.2 62.1 31.9 62 31.5C61.9 31.2 61.8 30.9 61.6 30.6C61.4 30.3 61.2 30.1 60.9 30C60.6 29.8 60.3 29.7 59.8 29.7C59.3 29.7 59 29.8 58.7 30C58.3 30.2 58.1 30.4 57.9 30.7C57.7 31 57.5 31.3 57.4 31.6C57.3 31.9 57.3 32.2 57.2 32.6H62.1Z" fill="white"/>
    <path d="M72.2 49L79.1 27.2H80.9L74 49H72.2Z" fill="white"/>
    <path d="M83.1 41.8V28.3H84.6V37.1L89.3 28.3H90.8V41.8H89.3V32.9L84.6 41.8H83.1Z" fill="white"/>
  </g>
  <defs>
    <clipPath id="clip0_1_2">
      <rect width="120" height="80" fill="white"/>
    </clipPath>
  </defs>
</svg> 